HIERARCHY
ROOT joint_Root
{
	OFFSET 0.0 0.0 0.0
	CHANNELS 6 Xposition Yposition Zposition Zrotation Xrotation Yrotation 
	JOINT Hips
	{
		OFFSET 4.5925 91.4895 -427.239
		CHANNELS 6 Xposition Yposition Zposition Zrotation Xrotation Yrotation 
		JOINT Spine
		{
			OFFSET 15.7357 0.0 0.0
			CHANNELS 6 Xposition Yposition Zposition Zrotation Xrotation Yrotation 
			JOINT Chest
			{
				OFFSET 8.98455 -0.406207 0.0
				CHANNELS 6 Xposition Yposition Zposition Zrotation Xrotation Yrotation 
				JOINT Neck
				{
					OFFSET 16.3773 0.0 0.0
					CHANNELS 6 Xposition Yposition Zposition Zrotation Xrotation Yrotation 
					JOINT Head
					{
						OFFSET 6.45672 0.0 0.0
						CHANNELS 6 Xposition Yposition Zposition Zrotation Xrotation Yrotation 
						End Site
						{
							OFFSET 0.0 0.0 0.0
						}
					}
				}
				JOINT Shoulder_L
				{
					OFFSET 12.9942 -0.242716 4.98039
					CHANNELS 6 Xposition Yposition Zposition Zrotation Xrotation Yrotation 
					JOINT UpperArm_L
					{
						OFFSET 5.34809 0.0 0.0
						CHANNELS 6 Xposition Yposition Zposition Zrotation Xrotation Yrotation 
						JOINT LowerArm_L
						{
							OFFSET 24.3286 1.87007e-05 0.0
							CHANNELS 6 Xposition Yposition Zposition Zrotation Xrotation Yrotation 
							JOINT Hand_L
							{
								OFFSET 22.2916 0.0 0.0
								CHANNELS 6 Xposition Yposition Zposition Zrotation Xrotation Yrotation 
								End Site
								{
									OFFSET 0.0 0.0 0.0
								}
							}
						}
					}
				}
				JOINT Shoulder_R
				{
					OFFSET 12.9945 -0.242716 -4.98039
					CHANNELS 6 Xposition Yposition Zposition Zrotation Xrotation Yrotation 
					JOINT UpperArm_R
					{
						OFFSET -5.34813 0.0 0.0
						CHANNELS 6 Xposition Yposition Zposition Zrotation Xrotation Yrotation 
						JOINT LowerArm_R
						{
							OFFSET -24.3289 0.000322201 0.0
							CHANNELS 6 Xposition Yposition Zposition Zrotation Xrotation Yrotation 
							JOINT Hand_R
							{
								OFFSET -22.2915 -0.000108084 0.0
								CHANNELS 6 Xposition Yposition Zposition Zrotation Xrotation Yrotation 
								End Site
								{
									OFFSET 0.0 0.0 0.0
								}
							}
						}
					}
				}
			}
		}
		JOINT UpperLeg_L
		{
			OFFSET -2.19248 -6.46944 0.0
			CHANNELS 6 Xposition Yposition Zposition Zrotation Xrotation Yrotation 
			JOINT LowerLeg_L
			{
				OFFSET 39.0811 0.0 -1.23785e-05
				CHANNELS 6 Xposition Yposition Zposition Zrotation Xrotation Yrotation 
				JOINT Foot_L
				{
					OFFSET 40.9854 0.0 -1.26872e-05
					CHANNELS 6 Xposition Yposition Zposition Zrotation Xrotation Yrotation 
					JOINT Toes_L
					{
						OFFSET 11.7543 0.0 0.0
						CHANNELS 6 Xposition Yposition Zposition Zrotation Xrotation Yrotation 
						End Site
						{
							OFFSET 0.0 0.0 0.0
						}
					}
				}
			}
		}
		JOINT UpperLeg_R
		{
			OFFSET -2.19251 6.46944 0.0
			CHANNELS 6 Xposition Yposition Zposition Zrotation Xrotation Yrotation 
			JOINT LowerLeg_R
			{
				OFFSET -39.0811 -0.00228153 -0.0401928
				CHANNELS 6 Xposition Yposition Zposition Zrotation Xrotation Yrotation 
				JOINT Foot_R
				{
					OFFSET -40.9854 0.0 0.0
					CHANNELS 6 Xposition Yposition Zposition Zrotation Xrotation Yrotation 
					JOINT Toes_R
					{
						OFFSET -11.7543 0.0 0.0
						CHANNELS 6 Xposition Yposition Zposition Zrotation Xrotation Yrotation 
						End Site
						{
							OFFSET 0.0 0.0 0.0
						}
					}
				}
			}
		}
	}
}
MOTION
Frames:	5
Frame Time:	0.0333333
0.000000 0.000000 0.000000 0.000000 0.000000 -0.000000 -1.036680 88.268500 -1.016770 87.199800 0.832977 2.415240 15.735700 0.000005 -0.000001 85.009000 79.165500 -83.996900 8.984550 -0.406207 -0.000000 13.842800 -1.810360 2.244700 16.377300 -0.000001 -0.000001 2.374990 -3.890990 1.515680 6.456720 -0.000001 -0.000000 -7.988800 -3.522530 2.731270 12.994200 -0.242716 4.980390 -90.622100 2.562970 -76.351700 5.348090 -0.000007 -0.000001 -67.035300 21.640900 -17.867200 24.328600 0.000019 0.000005 15.750500 18.481900 -41.659100 22.291600 -0.000001 0.000005 14.269700 5.241250 1.662700 12.994500 -0.242716 -4.980390 88.621700 8.504990 -80.759800 -5.348130 -0.000001 -0.000004 -62.825800 31.252300 -14.524000 -24.328900 0.000322 -0.000009 3.672780 6.990150 -27.816300 -22.291500 -0.000108 -0.000004 16.472100 5.408170 -3.204850 -2.192480 -6.469440 -0.000000 -173.947000 -4.207490 -12.251700 39.081100 -0.000007 -0.000012 0.063992 -0.033860 62.111800 40.985400 -0.000006 -0.000013 0.536338 4.658760 -58.184100 11.754300 -0.000000 0.000003 -0.026809 -0.202460 -24.864000 -2.192510 6.469440 -0.000001 -173.867000 12.921200 154.599000 -39.081100 -0.002282 -0.040193 -0.240816 0.295949 39.515800 -40.985400 0.000008 0.000006 5.245120 1.990500 -62.934000 -11.754300 -0.000006 -0.000006 -0.005447 -0.065731 -19.247900
0.000000 0.000000 0.000000 0.000000 0.000000 -0.000000 -1.343180 88.218600 1.724070 87.369800 0.930381 2.966100 15.735700 0.000005 -0.000001 85.979600 78.990200 -85.025800 8.984550 -0.406207 -0.000000 14.215900 -1.471970 2.092190 16.377300 -0.000001 -0.000001 2.310100 -4.160280 1.815850 6.456720 -0.000001 -0.000000 -7.583530 -3.943240 3.239640 12.994200 -0.242716 4.980390 -90.602100 2.488490 -76.393900 5.348090 -0.000007 -0.000001 -67.597800 22.727600 -17.449100 24.328600 0.000019 0.000005 15.180300 19.086800 -39.684000 22.291600 -0.000001 0.000005 14.031300 5.243340 1.608030 12.994500 -0.242716 -4.980390 88.651000 8.392810 -80.835100 -5.348130 -0.000001 -0.000004 -61.777200 31.890700 -15.964700 -24.328900 0.000322 -0.000009 3.738430 7.133900 -27.757600 -22.291500 -0.000108 -0.000004 16.613400 5.406640 -3.154550 -2.192480 -6.469440 -0.000000 -174.125000 -3.621070 -15.446200 39.081100 -0.000007 -0.000012 0.064336 -0.026127 67.893300 40.985400 -0.000006 -0.000013 -0.285337 2.148720 -57.415400 11.754300 -0.000000 0.000003 -0.002974 -0.040316 -18.216300 -2.192510 6.469440 -0.000001 -174.331000 14.000800 156.523000 -39.081100 -0.002282 -0.040193 -0.293740 0.341482 41.016700 -40.985400 0.000008 0.000006 5.468260 2.529160 -65.832600 -11.754300 -0.000006 -0.000006 -0.004658 -0.058122 -18.937700
0.000000 0.000000 0.000000 0.000000 0.000000 -0.000000 -1.465520 88.459300 4.244550 87.912000 0.428744 3.142970 15.735700 0.000005 -0.000001 87.425000 78.962300 -86.737800 8.984550 -0.406207 -0.000000 14.294500 -0.940878 1.492940 16.377300 -0.000001 -0.000001 2.451130 -4.285170 2.104500 6.456720 -0.000001 -0.000000 -7.363740 -4.350050 3.562690 12.994200 -0.242716 4.980390 -90.609500 2.496140 -76.273100 5.348090 -0.000007 -0.000001 -68.166400 23.584100 -16.723200 24.328600 0.000019 0.000005 15.311000 20.520900 -37.990200 22.291600 -0.000001 0.000005 13.381100 5.244230 1.585220 12.994500 -0.242716 -4.980390 88.683100 8.353860 -81.008800 -5.348130 -0.000001 -0.000004 -60.769200 32.278100 -17.578100 -24.328900 0.000322 -0.000009 3.892470 7.536610 -27.425200 -22.291500 -0.000108 -0.000004 16.902000 5.410020 -3.265850 -2.192480 -6.469440 -0.000000 -175.133000 -4.341620 -17.918000 39.081100 -0.000007 -0.000012 0.035624 -0.013075 69.837000 40.985400 -0.000006 -0.000013 2.838540 -0.449918 -61.081800 11.754300 -0.000000 0.000003 -0.002145 -0.030525 -17.818000 -2.192510 6.469440 -0.000001 -175.265000 14.104700 158.702000 -39.081100 -0.002282 -0.040193 -0.332319 0.385585 41.035300 -40.985400 0.000008 0.000006 5.437150 2.972230 -67.759800 -11.754300 -0.000006 -0.000006 -0.004314 -0.054670 -18.797100
0.000000 0.000000 0.000000 0.000000 0.000000 -0.000000 -1.542400 88.876900 6.649660 88.371800 0.224681 3.213140 15.735700 0.000005 -0.000001 88.304200 78.954400 -87.870000 8.984550 -0.406207 -0.000000 14.318600 -0.621106 0.946906 16.377300 -0.000001 -0.000001 2.577280 -4.336640 2.251410 6.456720 -0.000001 -0.000000 -7.347730 -4.616990 3.634670 12.994200 -0.242716 4.980390 -90.599600 2.423310 -76.097300 5.348090 -0.000007 -0.000001 -68.917000 24.063100 -15.546000 24.328600 0.000019 0.000005 15.339300 21.665700 -36.612200 22.291600 -0.000001 0.000005 12.773500 5.239490 1.708840 12.994500 -0.242716 -4.980390 88.735500 8.195910 -81.198700 -5.348130 -0.000001 -0.000004 -60.408200 31.984300 -18.951100 -24.328900 0.000322 -0.000009 3.954500 7.712920 -27.258500 -22.291500 -0.000108 -0.000004 16.984000 5.406820 -3.160470 -2.192480 -6.469440 -0.000000 -175.996000 -4.723730 -19.951000 39.081100 -0.000007 -0.000012 0.021880 -0.008802 68.072300 40.985400 -0.000006 -0.000013 3.427000 -1.994370 -63.121100 11.754300 -0.000000 0.000003 -0.001612 -0.023749 -17.542500 -2.192510 6.469440 -0.000001 -176.086000 14.821900 161.209000 -39.081100 -0.002282 -0.040193 -0.311870 0.375677 39.993200 -40.985400 0.000008 0.000006 5.973350 3.637380 -69.174500 -11.754300 -0.000006 -0.000006 -0.004016 -0.051603 -18.672200
0.000000 0.000000 0.000000 0.000000 0.000000 -0.000000 -1.598430 89.360000 8.907640 88.790600 0.353867 3.038860 15.735700 0.000005 -0.000001 88.754900 79.017700 -88.539100 8.984550 -0.406207 -0.000000 14.194500 -0.459543 0.489062 16.377300 -0.000001 -0.000001 2.589870 -4.405830 2.314290 6.456720 -0.000001 -0.000000 -7.388850 -4.748400 3.491620 12.994200 -0.242716 4.980390 -90.573400 2.308460 -76.046800 5.348090 -0.000007 -0.000001 -69.702900 24.290300 -14.150500 24.328600 0.000019 0.000005 14.780600 22.003100 -35.154800 22.291600 -0.000001 0.000005 12.373000 5.242500 1.629880 12.994500 -0.242716 -4.980390 88.794300 7.925680 -81.321400 -5.348130 -0.000001 -0.000004 -60.523800 31.232100 -19.989400 -24.328900 0.000322 -0.000009 3.932510 7.615280 -27.423900 -22.291500 -0.000108 -0.000004 17.110600 5.408340 -3.210710 -2.192480 -6.469440 -0.000000 -176.658000 -4.468850 -21.538400 39.081100 -0.000007 -0.000012 0.013820 -0.006991 63.150500 40.985400 -0.000006 -0.000013 3.150520 -0.816398 -64.652600 11.754300 -0.000000 0.000003 -0.001428 -0.021317 -17.443600 -2.192510 6.469440 -0.000001 -176.794000 15.946300 163.652000 -39.081100 -0.002282 -0.040193 -0.249694 0.319814 38.344700 -40.985400 0.000008 0.000006 7.008440 4.316810 -70.269400 -11.754300 -0.000006 -0.000006 -0.003638 -0.047621 -18.510100
